inDegrees=yes
name=ik_coleta1_trike_filtrado_mov
DataType=double
version=3
OpenSimVersion=4.4-2022-07-23-0e9fedc
endheader
time	pelvis_tilt	pelvis_tx	pelvis_ty	hip_flexion_r	knee_angle_r	ankle_angle_r	hip_flexion_l	knee_angle_l	ankle_angle_l	lumbar_extension	gearToGround_coord_0	rightPedalToGear_coord_0	leftPedalToGear_coord_0
22.31950211524963	52.5	-0.7	0.0500000000000003	61.28119348953743	-55.39801044714359	-1.039076492892845e-12	80.38799999999991	-84.66000000000004	5.05043721578303e-13	2.071017320375504e-12	0	-114.0000000000003	-139.067795130823
22.32352781295776	52.5	-0.7	0.0500000000000003	61.33887622622921	-56.08946296939371	-1.039076492892845e-12	80.38799999999991	-84.66000000000004	5.05043721578303e-13	2.071017320375504e-12	0	-114.0000000000003	-139.067795130823
22.32849192619324	52.5	-0.7	0.0500000000000003	61.40945992996969	-56.78286047069113	-1.039076492892845e-12	80.38799999999991	-84.66000000000004	5.05043721578303e-13	2.071017320375504e-12	0	-114.0000000000003	-139.067795130823
22.33349800109863	52.5	-0.7	0.0500000000000003	61.49260329907275	-57.4984571795329	-1.039076492892845e-12	80.38799999999991	-84.66000000000004	5.05043721578303e-13	2.071017320375504e-12	0	-114.0000000000003	-139.067795130823
22.34449505805969	52.5	-0.7	0.0500000000000003	61.58768222838206	-58.2230539585208	-1.039076492892845e-12	80.38799999999991	-84.66000000000004	5.05043721578303e-13	2.071017320375504e-12	0	-114.0000000000003	-139.067795130823
22.35051798820496	52.5	-0.7	0.0500000000000003	61.69427759484363	-58.95463743966567	-1.039076492892845e-12	80.38799999999991	-84.66000000000004	5.05043721578303e-13	2.071017320375504e-12	0	-114.0000000000003	-139.067795130823
22.36250591278076	52.5	-0.7	0.0500000000000003	61.81201976296426	-59.69159327263279	-1.039076492892845e-12	80.38799999999991	-84.66000000000004	5.05043721578303e-13	2.071017320375504e-12	0	-114.0000000000003	-139.067795130823
22.36650013923645	52.5	-0.7	0.0500000000000003	61.94056291960867	-60.43238161069298	-1.039076492892845e-12	80.38799999999991	-84.66000000000004	5.05043721578303e-13	2.071017320375504e-12	0	-114.0000000000003	-139.067795130823
22.37150001525879	52.5	-0.7	0.0500000000000003	62.07957549888992	-61.1755674551404	-1.039076492892845e-12	80.38799999999991	-84.66000000000004	5.05043721578303e-13	2.071017320375504e-12	0	-114.0000000000003	-139.067795130823
22.37650299072266	52.5	-0.7	0.0500000000000003	62.22872969602566	-61.91983707850098	-1.039076492892845e-12	80.38799999999991	-84.66000000000004	5.05043721578303e-13	2.071017320375504e-12	0	-114.0000000000003	-139.067795130823
22.38251185417175	52.5	-0.7	0.0500000000000003	62.38768947059643	-62.66398714950792	-1.039076492892845e-12	80.38799999999991	-84.66000000000004	5.05043721578303e-13	2.071017320375504e-12	0	-114.0000000000003	-139.067795130823
22.38653683662415	52.5	-0.7	0.0500000000000003	62.55609950506064	-63.40689771131133	-1.039076492892845e-12	80.38799999999991	-84.66000000000004	5.05043721578303e-13	2.071017320375504e-12	0	-114.0000000000003	-139.067795130823
22.39149498939514	52.5	-0.7	0.0500000000000003	62.73357961120428	-64.14750043468675	-1.039076492892845e-12	80.38799999999991	-84.66000000000004	5.05043721578303e-13	2.071017320375504e-12	0	-114.0000000000003	-139.067795130823
22.39651083946228	52.5	-0.7	0.0500000000000003	62.91972566736302	-64.88475029226558	-1.039076492892845e-12	80.38799999999991	-84.66000000000004	5.05043721578303e-13	2.071017320375504e-12	0	-114.0000000000003	-139.067795130823
22.40049409866333	52.5	-0.7	0.0500000000000003	63.11330777232721	-65.6098458633974	-1.039076492892845e-12	80.38799999999991	-84.66000000000004	5.05043721578303e-13	2.071017320375504e-12	0	-114.0000000000003	-139.067795130823
22.41049289703369	52.5	-0.7	0.0500000000000003	63.31615521554702	-66.34200206405244	-1.039076492892845e-12	80.38799999999991	-84.66000000000004	5.05043721578303e-13	2.071017320375504e-12	0	-114.0000000000003	-139.067795130823
22.41649508476257	52.5	-0.7	0.0500000000000003	63.52584040348117	-67.06550013001836	-1.039076492892845e-12	80.38799999999991	-84.66000000000004	5.05043721578303e-13	2.071017320375504e-12	0	-114.0000000000003	-139.067795130823
